# xmcd CD database file
#
# Track frame offsets:
#	150
#	21841
#	47423
#	69501
#	86363
#	104572
#	131220
#	152246
#	168083
#	184573
#	203127
#	219882
#	232610
#	255967
#	275953
#	298911
#	320630
#	333220
#
# Disc length: 4709 seconds
#
# Revision: 0
# Processed by: cddbd v1.5.2PL0 Copyright (c) Steve Scherf et al.
# Submitted via: CDex 1.51
#
DISCID=fb126312
DTITLE=Frankie Dante - The Best Frankie Dante and Orquesta Flamboyan
DYEAR=2009
DGENRE=Salsa
TTITLE0=1. Yo Te Seguire 
TTITLE1=2. Chupa El Piruli
TTITLE2=3. Mambo Yambo
TTITLE3=4. Guarare
TTITLE4=5. Me Voy Pa Pinar Del Rio
TTITLE5=6. Los Rumberos
TTITLE6=7. Precioso Montuno
TTITLE7=8. Pa Guaynabo
TTITLE8=9. La Cuna Del Son
TTITLE9=10. Presidente Dante
TTITLE10=11. Que Cosa Tendran Las Mujeres
TTITLE11=12. Paz
TTITLE12=13. Ciencia Politica
TTITLE13=14. Son Retozon
TTITLE14=15. Vive La Vida Hoy 
TTITLE15=16. Venceremos
TTITLE16=17. La Coquetona
TTITLE17=18. Semilla De Caña Brava
EXTD=YEAR: 2009
EXTT0=
EXTT1=
EXTT2=
EXTT3=
EXTT4=
EXTT5=
EXTT6=
EXTT7=
EXTT8=
EXTT9=
EXTT10=
EXTT11=
EXTT12=
EXTT13=
EXTT14=
EXTT15=
EXTT16=
EXTT17=
PLAYORDER=
